<svg width="38" height="126" viewBox="0 0 38 126" fill="none" xmlns="http://www.w3.org/2000/svg">
<path d="M35.8125 0.1875L37.5 5.125C31.9167 6.875 27.9583 9.91667 25.625 14.25C23.3333 18.5833 22.1875 23.5833 22.1875 29.25V43.4375C22.1875 47.3958 21.4375 50.9792 19.9375 54.1875C18.4792 57.3958 16.1458 59.9375 12.9375 61.8125C9.72917 63.6875 5.52083 64.625 0.3125 64.625V59.5C5.4375 59.5 9.125 58.0625 11.375 55.1875C13.625 52.2708 14.75 48.3542 14.75 43.4375V29.25C14.75 24.875 15.375 20.7917 16.625 17C17.9167 13.1667 20.0833 9.8125 23.125 6.9375C26.2083 4.02083 30.4375 1.77083 35.8125 0.1875ZM37.625 120.188L35.8125 125.25C30.4375 123.625 26.2083 121.375 23.125 118.5C20.0833 115.667 17.9167 112.354 16.625 108.562C15.375 104.771 14.75 100.688 14.75 96.3125V82.1875C14.75 78.8958 14.25 76.0625 13.25 73.6875C12.25 71.2708 10.6875 69.3958 8.5625 68.0625C6.47917 66.7292 3.72917 66.0625 0.3125 66.0625V60.9375C5.52083 60.9375 9.72917 61.8958 12.9375 63.8125C16.1458 65.6875 18.4792 68.2292 19.9375 71.4375C21.4375 74.6458 22.1875 78.2292 22.1875 82.1875V96.3125C22.1875 100.104 22.7083 103.583 23.75 106.75C24.7917 109.917 26.4375 112.646 28.6875 114.938C30.9792 117.229 33.9583 118.979 37.625 120.188Z" fill="#FFB703"/>
</svg>
